<svg width="21" height="20" viewBox="0 0 21 20" fill="none" xmlns="http://www.w3.org/2000/svg">
<path d="M16 0H5V13L12 20L13.25 18.75C13.3667 18.6333 13.4625 18.475 13.5375 18.275C13.6125 18.075 13.65 17.8833 13.65 17.7V17.35L12.55 13H19C19.5333 13 20 12.8 20.4 12.4C20.8 12 21 11.5333 21 11V9C21 8.88333 20.9833 8.75833 20.95 8.625C20.9167 8.49167 20.8833 8.36667 20.85 8.25L17.85 1.2C17.7 0.866665 17.45 0.583334 17.1 0.35C16.75 0.116667 16.3833 0 16 0ZM7 2H16L19 9V11H10L11.35 16.5L7 12.15V2ZM5 13V11H2V2H5V0H0V13H5Z" fill="#1C1B1F"/>
</svg>
