<svg width="17" height="17" viewBox="0 0 17 17" fill="none" xmlns="http://www.w3.org/2000/svg">
<path d="M5.94213 11.8843C4.28138 11.8843 2.87584 11.3091 1.7255 10.1588C0.575168 9.00842 0 7.60288 0 5.94213C0 4.28138 0.575168 2.87584 1.7255 1.7255C2.87584 0.575168 4.28138 0 5.94213 0C7.60288 0 9.00842 0.575168 10.1588 1.7255C11.3091 2.87584 11.8843 4.28138 11.8843 5.94213C11.8843 6.61253 11.7776 7.24483 11.5643 7.83904C11.351 8.43326 11.0615 8.95891 10.6958 9.41599L15.8152 14.5354C15.9828 14.703 16.0666 14.9163 16.0666 15.1753C16.0666 15.4343 15.9828 15.6476 15.8152 15.8152C15.6476 15.9828 15.4343 16.0666 15.1753 16.0666C14.9163 16.0666 14.703 15.9828 14.5354 15.8152L9.41599 10.6958C8.95891 11.0615 8.43326 11.351 7.83904 11.5643C7.24483 11.7776 6.61253 11.8843 5.94213 11.8843ZM5.94213 10.0559C7.08485 10.0559 8.05616 9.65596 8.85606 8.85606C9.65596 8.05616 10.0559 7.08485 10.0559 5.94213C10.0559 4.79941 9.65596 3.8281 8.85606 3.0282C8.05616 2.2283 7.08485 1.82835 5.94213 1.82835C4.79941 1.82835 3.8281 2.2283 3.0282 3.0282C2.2283 3.8281 1.82835 4.79941 1.82835 5.94213C1.82835 7.08485 2.2283 8.05616 3.0282 8.85606C3.8281 9.65596 4.79941 10.0559 5.94213 10.0559Z" fill="#1C1B1F"/>
</svg>
