<svg width="21" height="21" viewBox="0 0 21 21" fill="none" xmlns="http://www.w3.org/2000/svg">
<path d="M14.8544 10.8932L10.7447 6.88252C10.233 6.38737 9.79976 5.83859 9.4449 5.23616C9.09005 4.63373 8.91262 3.97767 8.91262 3.26796C8.91262 2.36019 9.23034 1.58859 9.86578 0.953155C10.5012 0.317718 11.2728 0 12.1806 0C12.7087 0 13.2039 0.111408 13.666 0.334223C14.1282 0.557038 14.5243 0.858252 14.8544 1.23786C15.1845 0.858252 15.5806 0.557038 16.0427 0.334223C16.5049 0.111408 17 0 17.5282 0C18.4359 0 19.2075 0.317718 19.843 0.953155C20.4784 1.58859 20.7961 2.36019 20.7961 3.26796C20.7961 3.97767 20.6228 4.63373 20.2762 5.23616C19.9296 5.83859 19.5005 6.38737 18.9888 6.88252L14.8544 10.8932ZM14.8544 8.12038L17.5529 5.47135C17.8665 5.15776 18.1553 4.82354 18.4194 4.46869C18.6835 4.11383 18.8155 3.71359 18.8155 3.26796C18.8155 2.90485 18.6917 2.59951 18.4442 2.35194C18.1966 2.10437 17.8913 1.98058 17.5282 1.98058C17.2971 1.98058 17.0784 2.02597 16.8721 2.11675C16.6658 2.20752 16.4883 2.34369 16.3398 2.52524L14.8544 4.30776L13.3689 2.52524C13.2204 2.34369 13.043 2.20752 12.8367 2.11675C12.6303 2.02597 12.4117 1.98058 12.1806 1.98058C11.8175 1.98058 11.5121 2.10437 11.2646 2.35194C11.017 2.59951 10.8932 2.90485 10.8932 3.26796C10.8932 3.71359 11.0252 4.11383 11.2893 4.46869C11.5534 4.82354 11.8422 5.15776 12.1558 5.47135L14.8544 8.12038ZM5.94175 16.3398L12.8243 18.2213L18.7165 16.3893C18.634 16.2408 18.5143 16.1129 18.3575 16.0056C18.2007 15.8983 18.0233 15.8446 17.8252 15.8446H12.8243C12.3786 15.8446 12.0238 15.8281 11.7597 15.7951C11.4956 15.7621 11.2233 15.6961 10.9427 15.5971L8.64029 14.8296L9.18495 12.8985L11.1903 13.567C11.4709 13.6495 11.801 13.7155 12.1806 13.765C12.5602 13.8146 13.1214 13.8476 13.8641 13.8641C13.8641 13.6825 13.8104 13.5092 13.7032 13.3442C13.5959 13.1791 13.468 13.0718 13.3194 13.0223L7.52621 10.8932H5.94175V16.3398ZM0 19.8058V8.91261H7.52621C7.64175 8.91261 7.75728 8.92499 7.87282 8.94975C7.98835 8.97451 8.09563 9.00339 8.19466 9.0364L14.0126 11.1903C14.5573 11.3883 14.9988 11.7349 15.3371 12.2301C15.6755 12.7252 15.8447 13.2699 15.8447 13.8641H17.8252C18.6505 13.8641 19.3519 14.1364 19.9296 14.6811C20.5073 15.2257 20.7961 15.9437 20.7961 16.8349V17.8252L12.8738 20.301L5.94175 18.3699V19.8058H0ZM1.98058 17.8252H3.96117V10.8932H1.98058V17.8252Z" fill="#FF0073"/>
</svg>
